<svg width="178" height="138" viewBox="0 0 178 138" fill="none" xmlns="http://www.w3.org/2000/svg">
    <path
        d="M55.468 34.5577L38.7486 48.0713C18.332 64.5731 17.3381 95.3585 36.6478 113.143L46.953 122.634C54.014 129.137 63.048 133.091 72.6163 133.865L99.0125 136H118.477C132.407 136 145.474 129.252 153.539 117.893L160.218 108.485C162.421 105.382 164.203 102 165.516 98.4282L167.544 92.9118C173.814 75.8538 168.594 56.621 154.637 44.98L148.428 38.4257C140.307 29.8548 129.02 25 117.213 25H82.4978C72.6598 25 63.1193 28.3735 55.468 34.5577Z"
        stroke="#D1CFC0" stroke-width="3" />
    <path d="M90.3505 65.873V65.873C79.9919 59.6477 66.8514 60.5366 57.4257 68.1003V68.1003" stroke="#D1CFC0"
        stroke-width="2" />
    <path d="M144.928 67.6543V67.6543C135.491 60.1043 122.349 59.2344 112 65.4747V65.4747" stroke="#D1CFC0"
        stroke-width="2" />
    <path
        d="M99.0994 108.189C98.2088 108.189 97.4149 108.036 96.7177 107.73C96.025 107.424 95.474 106.999 95.0646 106.455C94.6598 105.906 94.4394 105.27 94.4034 104.545H96.1037C96.1397 104.991 96.2926 105.375 96.5625 105.699C96.8324 106.019 97.1855 106.266 97.6218 106.441C98.0581 106.617 98.5417 106.705 99.0724 106.705C99.6662 106.705 100.192 106.601 100.651 106.394C101.11 106.187 101.47 105.899 101.731 105.531C101.992 105.162 102.122 104.734 102.122 104.249C102.122 103.74 101.996 103.293 101.744 102.906C101.492 102.515 101.124 102.209 100.638 101.988C100.152 101.768 99.5582 101.658 98.8565 101.658H97.75V100.173H98.8565C99.4053 100.173 99.8866 100.074 100.3 99.8764C100.719 99.6785 101.045 99.3996 101.279 99.0398C101.517 98.6799 101.636 98.2571 101.636 97.7713C101.636 97.3035 101.533 96.8964 101.326 96.5501C101.119 96.2037 100.827 95.9338 100.449 95.7404C100.076 95.547 99.6347 95.4503 99.1264 95.4503C98.6496 95.4503 98.1998 95.538 97.777 95.7134C97.3587 95.8844 97.0168 96.134 96.7514 96.4624C96.486 96.7862 96.3421 97.1776 96.3196 97.6364H94.7003C94.7273 96.9122 94.9454 96.2779 95.3548 95.7337C95.7641 95.1849 96.2994 94.7576 96.9606 94.4517C97.6263 94.1458 98.3572 93.9929 99.1534 93.9929C100.008 93.9929 100.741 94.1661 101.353 94.5124C101.965 94.8543 102.435 95.3063 102.763 95.8686C103.092 96.4309 103.256 97.0381 103.256 97.6903C103.256 98.4685 103.051 99.132 102.642 99.6808C102.237 100.23 101.686 100.61 100.989 100.821V100.929C101.861 101.073 102.543 101.444 103.033 102.042C103.523 102.636 103.768 103.371 103.768 104.249C103.768 105 103.564 105.674 103.154 106.273C102.75 106.866 102.196 107.334 101.495 107.676C100.793 108.018 99.9946 108.189 99.0994 108.189Z"
        fill="#D1CFC0" />
    <path
        d="M37.6626 49.5C36.7131 43.1703 36.9531 24.5288 37.3424 10.6641C37.4563 6.6068 42.1135 4.42382 45.3307 6.89856L70.1626 26"
        stroke="#D1CFC0" stroke-width="2.5" />
    <path
        d="M157.497 49C158.448 42.5996 158.206 23.7397 157.817 9.72831C157.703 5.65866 153.023 3.47797 149.808 5.97634L125 25.2577"
        stroke="#D1CFC0" stroke-width="2.5" />
</svg>