<svg width="1024" height="1024" viewBox="0 0 1024 1024" fill="none" xmlns="http://www.w3.org/2000/svg">
    <rect width="1024" height="1024" />
    <path
        d="M265.117 363.128C264.969 439.038 271.114 473.026 291.681 520.616C321.409 439.083 351.855 407.227 413.117 357.436C450.953 338.668 475.344 334.551 511.344 333.226C502.537 333.431 494.188 333.454 481.425 332.769C430.375 275.623 362.916 240.095 310.655 236C275.639 245.818 270.211 286.307 265.117 363.128Z"
        fill="#0F0F0F" />
    <path
        d="M756.547 363.128C756.695 439.038 750.55 473.026 729.983 520.616C700.255 439.083 669.81 407.227 608.548 357.436C570.713 338.668 546.322 334.551 510.322 333.226C519.13 333.431 527.479 333.454 540.241 332.769C591.291 275.623 658.749 240.095 711.009 236C746.025 245.818 751.453 286.307 756.547 363.128Z"
        fill="#0F0F0F" />
    <path
        d="M773.626 552.872C785.011 698.975 656.394 788.155 511.78 788.155C367.166 788.155 236.652 710.36 249.933 552.872C249.933 422.929 367.166 317.59 511.78 317.59C656.394 317.59 773.626 422.929 773.626 552.872Z"
        fill="#0F0F0F" />
</svg>