<svg width="464" height="422" viewBox="0 0 464 422" fill="none" xmlns="http://www.w3.org/2000/svg">
    <path
        d="M333.857 16.5337L336.198 16.4453C344.039 16.1495 351.887 16.7774 359.581 18.3162L360.5 18.5C368.122 21.1511 375.295 24.95 381.771 29.7653L383.133 30.778C388.689 34.9097 393.706 39.721 398.067 45.0994C403.653 51.9886 408.098 59.729 411.232 68.0257L411.61 69.0269C413.864 74.9919 415.474 81.1805 416.413 87.4874L418.258 99.875C418.413 100.916 418.972 101.854 419.814 102.486L430.386 110.415C434.454 113.466 438.247 116.868 441.721 120.581L443.364 122.337C448.424 127.746 452.614 133.908 455.785 140.602L456.084 141.233C458.683 146.719 460.525 152.576 461.547 158.559C462.833 166.094 462.809 173.848 461.459 181.372L461.398 181.712C460.47 186.884 458.9 191.92 456.726 196.703C453.927 202.861 450.157 208.53 445.562 213.493L444.954 214.15C441.66 217.707 438 220.905 434.034 223.692L422.641 231.698C421.902 232.217 421.361 232.971 421.105 233.838L417.243 246.907C415.75 251.961 413.86 256.889 411.59 261.645L409.493 266.039C406.176 272.988 402.04 279.515 397.173 285.482L395.92 287.018C391.327 292.647 386.004 297.64 380.092 301.863L378.283 303.155C371.483 308.012 363.864 311.603 355.79 313.756C348.97 315.575 341.912 316.344 334.86 316.037L333.049 315.959C326.046 315.654 319.111 314.446 312.418 312.363L307.282 310.765C302.434 309.257 297.709 307.382 293.146 305.157L281.276 299.366C280.156 298.82 278.847 298.827 277.733 299.383L259.5 308.5L248.655 312.838C242.566 315.273 236.253 317.104 229.806 318.303L218 320.5L207.591 320.996C200.561 321.33 193.518 320.736 186.644 319.227C179.91 317.748 173.395 315.405 167.262 312.256L165.745 311.477C160.594 308.832 155.716 305.686 151.182 302.086C144.43 296.724 138.501 290.402 133.584 283.321L129.971 278.119C129.075 276.829 127.508 276.182 125.963 276.466L104 280.5L91.0082 281.853C83.7225 282.612 76.3607 282.127 69.2378 280.417L66.8527 279.845C59.0498 277.972 51.7649 274.377 45.5319 269.323C39.5794 264.497 34.727 258.454 31.2999 251.6L31.1419 251.284C27.7501 244.5 25.7869 237.092 25.3738 229.519L25.0103 222.855C24.6711 216.636 24.9962 210.399 25.9803 204.248L26.2899 202.313C27.7562 193.149 30.491 184.234 34.4157 175.824L38.1725 167.773C38.6946 166.654 38.6708 165.357 38.1079 164.258L33.0131 154.311C30.0173 148.462 27.8026 142.245 26.4257 135.82L25.6487 132.194C24.556 127.095 24.2516 121.858 24.746 116.667L24.8779 115.282C25.6138 107.555 28.3077 100.143 32.7051 93.7472C35.5489 89.6107 39.0554 85.9716 43.0835 82.9763L48.4643 78.9753C53.8034 75.0051 59.585 71.6678 65.6933 69.0302L66.5496 68.6604C74.4787 65.2365 82.8417 62.9211 91.4028 61.7796L101 60.5L121.811 60.0476C123.175 60.0179 124.43 59.2955 125.14 58.131L131.782 47.2375C134.921 42.0897 138.519 37.2364 142.532 32.7367L146.856 27.8889C150.939 23.3112 155.53 19.2141 160.541 15.6768L162.105 14.5732C167.341 10.8767 173.079 7.94664 179.144 5.8718C185.676 3.63722 192.512 2.42017 199.414 2.26331L200.649 2.23526C207.517 2.07915 214.375 2.86335 221.031 4.56605L222.871 5.03672C229.27 6.67384 235.468 9.01713 241.35 12.0235L245.535 14.1623C251.827 17.3784 257.761 21.2523 263.237 25.7193L272.09 32.9419C273.261 33.8972 274.871 34.111 276.25 33.4945L297.5 24L309.628 20.4626C317.513 18.1629 325.65 16.8434 333.857 16.5337Z"
        stroke="#D1CFC0" stroke-width="3" />
    <path
        d="M60.1508 323.746L58.1744 325.347C47.009 334.392 46.465 351.237 57.0236 360.983C60.8959 364.558 65.8542 366.731 71.1067 367.157L81.5 368H86.098C94.9608 368 103.273 363.702 108.396 356.47L108.763 355.952C109.916 354.325 110.848 352.551 111.535 350.679L112.287 348.627C115.114 340.919 112.799 332.266 106.5 327C101.069 321.255 93.5127 318 85.6073 318H76.3728C70.4668 318 64.74 320.029 60.1508 323.746Z"
        stroke="#D1CFC0" stroke-width="3" />
    <path
        d="M33.5005 391.991L27.2031 391.614C20.6114 391.219 14.1126 393.321 9 397.5C4.2298 402.27 4.74136 410.147 10.0885 414.26L11.5908 415.416C12.5258 416.135 13.5555 416.722 14.6508 417.16L16.7872 418.015C19.2511 419 21.8369 419.649 24.4743 419.942L29.5 420.5H36.5216C41.3231 420.5 45.9414 418.657 49.4236 415.351L50.9754 413.878C52.0684 412.84 52.9043 411.562 53.4168 410.145C54.9337 405.949 53.3906 401.26 49.6786 398.786L48.5 398C44.2804 394.43 39.0181 392.321 33.5005 391.991Z"
        stroke="#D1CFC0" stroke-width="3" />
    <path
        d="M111.347 109.982C111.271 110.641 111.107 111.781 110.853 113.402C110.625 115.023 110.448 116.353 110.321 117.392C109.941 120.508 109.751 123.079 109.751 125.106C109.751 127.133 109.815 128.716 109.941 129.856C110.093 130.971 110.321 132.035 110.625 133.048C110.929 134.036 111.373 134.821 111.955 135.404C112.563 135.987 113.273 136.278 114.083 136.278C115.249 136.278 116.275 135.645 117.161 134.378C118.073 133.111 118.783 131.49 119.289 129.514C119.796 127.513 120.227 125.499 120.581 123.472C120.961 121.445 121.316 119.469 121.645 117.544C122 115.619 122.329 114.301 122.633 113.592C123.317 113.136 123.837 112.908 124.191 112.908C124.546 112.908 124.812 112.946 124.989 113.022C125.141 114.238 125.293 116.455 125.445 119.672C125.623 122.864 125.851 125.347 126.129 127.12C126.433 128.893 126.813 130.401 127.269 131.642C127.751 132.883 128.46 133.922 129.397 134.758C130.335 135.569 131.411 135.974 132.627 135.974C133.869 135.974 134.882 135.404 135.667 134.264C136.453 133.124 137.023 131.604 137.377 129.704C138.011 126.309 138.327 122.813 138.327 119.216C138.327 115.593 138.023 112.769 137.415 110.742C138.049 110.286 138.631 110.058 139.163 110.058C139.695 110.058 140.151 110.476 140.531 111.312C140.911 112.148 141.177 113.212 141.329 114.504C141.608 116.835 141.747 118.95 141.747 120.85C141.747 122.75 141.57 124.663 141.215 126.588C140.861 128.513 140.303 130.312 139.543 131.984C138.809 133.631 137.77 134.948 136.427 135.936C135.11 136.899 133.577 137.38 131.829 137.38C130.664 137.355 129.613 137.076 128.675 136.544C127.763 135.987 127.029 135.341 126.471 134.606C125.914 133.846 125.407 132.858 124.951 131.642C124.293 129.894 123.735 127.665 123.279 124.954C122.215 128.678 121.316 131.249 120.581 132.668C118.783 136.088 116.313 137.811 113.171 137.836C111.145 137.836 109.625 137.101 108.611 135.632C107.725 134.315 107.167 132.465 106.939 130.084C106.863 129.071 106.825 127.918 106.825 126.626C106.825 122.395 107.509 116.999 108.877 110.438C109.536 110.058 110.055 109.868 110.435 109.868C110.841 109.868 111.145 109.906 111.347 109.982ZM158.208 126.056L158.018 130.426C158.018 132.63 158.272 134.112 158.778 134.872C159.082 135.379 159.5 135.632 160.032 135.632C160.184 135.632 160.4 135.594 160.678 135.518C161.21 135.366 161.654 135.442 162.008 135.746C161.831 136.633 160.944 137.076 159.348 137.076C158.259 137.076 157.537 136.62 157.182 135.708C156.904 135.024 156.701 134.175 156.574 133.162C156.448 132.123 156.346 131.414 156.27 131.034C154.624 134.175 153.028 136.088 151.482 136.772C150.697 137.127 149.785 137.304 148.746 137.304C147.708 137.304 146.897 136.81 146.314 135.822C145.757 134.809 145.478 133.339 145.478 131.414C145.478 129.489 145.795 127.475 146.428 125.372C147.062 123.244 147.986 121.458 149.202 120.014C150.418 118.545 151.748 117.81 153.192 117.81C155.27 117.81 156.65 118.671 157.334 120.394C157.917 121.863 158.208 123.751 158.208 126.056ZM148.898 124.84C148.544 126.208 148.278 127.513 148.1 128.754C147.923 129.97 147.834 131.059 147.834 132.022C147.834 132.959 148.024 133.77 148.404 134.454C148.81 135.138 149.329 135.48 149.962 135.48C151.33 135.48 152.648 134.188 153.914 131.604C155.181 129.02 155.814 126.613 155.814 124.384C155.814 122.94 155.434 121.749 154.674 120.812C154.168 120.204 153.496 119.9 152.66 119.9C151.85 119.9 151.102 120.381 150.418 121.344C149.76 122.281 149.253 123.447 148.898 124.84ZM179.268 135.936C178.812 136.417 178.293 136.658 177.71 136.658C176.621 136.658 175.81 136.075 175.278 134.91C174.746 133.745 174.43 132.326 174.328 130.654C174.252 128.982 174.202 127.31 174.176 125.638C174.151 123.966 174.012 122.547 173.758 121.382C173.53 120.217 173.087 119.634 172.428 119.634C171.542 119.634 170.782 120.432 170.148 122.028C169.54 123.624 169.11 125.397 168.856 127.348C168.147 132.795 167.463 135.847 166.804 136.506C166.348 136.734 165.956 136.848 165.626 136.848C165.297 136.848 165.018 136.81 164.79 136.734C164.258 134.403 163.916 130.388 163.764 124.688C163.714 121.851 163.663 120.014 163.612 119.178C164.144 118.823 164.6 118.646 164.98 118.646C165.36 118.646 165.664 118.684 165.892 118.76C166.019 119.849 166.082 122.079 166.082 125.448C166.108 128.817 166.133 130.755 166.158 131.262C166.285 130.73 166.437 129.869 166.614 128.678C166.817 127.487 166.994 126.512 167.146 125.752C167.298 124.967 167.539 124.055 167.868 123.016C168.198 121.977 168.565 121.154 168.97 120.546C169.376 119.913 169.933 119.381 170.642 118.95C171.352 118.494 172.15 118.266 173.036 118.266C174.227 118.266 175.088 118.811 175.62 119.9C176.178 120.964 176.482 122.294 176.532 123.89C176.583 125.486 176.608 127.107 176.608 128.754C176.634 130.401 176.836 131.908 177.216 133.276C177.622 134.644 178.306 135.531 179.268 135.936ZM197.721 135.936C197.265 136.417 196.745 136.658 196.163 136.658C195.073 136.658 194.263 136.075 193.731 134.91C193.199 133.745 192.882 132.326 192.781 130.654C192.705 128.982 192.654 127.31 192.629 125.638C192.603 123.966 192.464 122.547 192.211 121.382C191.983 120.217 191.539 119.634 190.881 119.634C189.994 119.634 189.234 120.432 188.601 122.028C187.993 123.624 187.562 125.397 187.309 127.348C186.599 132.795 185.915 135.847 185.257 136.506C184.801 136.734 184.408 136.848 184.079 136.848C183.749 136.848 183.471 136.81 183.243 136.734C182.711 134.403 182.369 130.388 182.217 124.688C182.166 121.851 182.115 120.014 182.065 119.178C182.597 118.823 183.053 118.646 183.433 118.646C183.813 118.646 184.117 118.684 184.345 118.76C184.471 119.849 184.535 122.079 184.535 125.448C184.56 128.817 184.585 130.755 184.611 131.262C184.737 130.73 184.889 129.869 185.067 128.678C185.269 127.487 185.447 126.512 185.599 125.752C185.751 124.967 185.991 124.055 186.321 123.016C186.65 121.977 187.017 121.154 187.423 120.546C187.828 119.913 188.385 119.381 189.095 118.95C189.804 118.494 190.602 118.266 191.489 118.266C192.679 118.266 193.541 118.811 194.073 119.9C194.63 120.964 194.934 122.294 194.985 123.89C195.035 125.486 195.061 127.107 195.061 128.754C195.086 130.401 195.289 131.908 195.669 133.276C196.074 134.644 196.758 135.531 197.721 135.936ZM212.563 126.056L212.373 130.426C212.373 132.63 212.626 134.112 213.133 134.872C213.437 135.379 213.855 135.632 214.387 135.632C214.539 135.632 214.754 135.594 215.033 135.518C215.565 135.366 216.008 135.442 216.363 135.746C216.186 136.633 215.299 137.076 213.703 137.076C212.614 137.076 211.892 136.62 211.537 135.708C211.258 135.024 211.056 134.175 210.929 133.162C210.802 132.123 210.701 131.414 210.625 131.034C208.978 134.175 207.382 136.088 205.837 136.772C205.052 137.127 204.14 137.304 203.101 137.304C202.062 137.304 201.252 136.81 200.669 135.822C200.112 134.809 199.833 133.339 199.833 131.414C199.833 129.489 200.15 127.475 200.783 125.372C201.416 123.244 202.341 121.458 203.557 120.014C204.773 118.545 206.103 117.81 207.547 117.81C209.624 117.81 211.005 118.671 211.689 120.394C212.272 121.863 212.563 123.751 212.563 126.056ZM203.253 124.84C202.898 126.208 202.632 127.513 202.455 128.754C202.278 129.97 202.189 131.059 202.189 132.022C202.189 132.959 202.379 133.77 202.759 134.454C203.164 135.138 203.684 135.48 204.317 135.48C205.685 135.48 207.002 134.188 208.269 131.604C209.536 129.02 210.169 126.613 210.169 124.384C210.169 122.94 209.789 121.749 209.029 120.812C208.522 120.204 207.851 119.9 207.015 119.9C206.204 119.9 205.457 120.381 204.773 121.344C204.114 122.281 203.608 123.447 203.253 124.84ZM228.896 129.286C228.845 129.793 228.82 130.135 228.82 130.312C228.82 131.832 229.276 133.01 230.188 133.846C231.125 134.682 232.227 135.1 233.494 135.1C234.76 135.1 235.786 134.923 236.572 134.568C237.382 134.213 237.965 133.833 238.32 133.428C239.232 132.288 240.068 131.718 240.828 131.718C241.106 131.718 241.436 131.794 241.816 131.946C241.562 133.187 240.6 134.327 238.928 135.366C237.281 136.379 235.204 136.886 232.696 136.886C230.922 136.886 229.39 136.329 228.098 135.214C226.831 134.074 226.198 132.529 226.198 130.578C226.198 128.627 226.578 126.74 227.338 124.916C228.123 123.067 229.238 121.496 230.682 120.204C232.151 118.887 233.633 118.228 235.128 118.228C236.648 118.228 237.864 118.545 238.776 119.178C239.713 119.786 240.182 120.685 240.182 121.876C240.182 124.08 239.194 125.904 237.218 127.348C235.267 128.767 233.19 129.476 230.986 129.476C230.403 129.476 229.706 129.413 228.896 129.286ZM231.784 128.032C232.974 128.032 234.038 127.652 234.976 126.892C235.913 126.132 236.572 125.334 236.952 124.498C237.357 123.662 237.56 122.902 237.56 122.218C237.56 121.534 237.294 120.939 236.762 120.432C236.23 119.9 235.609 119.634 234.9 119.634C233.633 119.634 232.455 120.508 231.366 122.256C230.302 124.004 229.542 125.815 229.086 127.69C230.2 127.918 231.1 128.032 231.784 128.032ZM244.083 119.14C244.513 118.557 245.058 118.266 245.717 118.266C245.97 118.266 246.223 118.329 246.477 118.456C247.009 121.851 248.123 124.967 249.821 127.804C250.935 125.727 252.278 122.801 253.849 119.026C254.457 118.697 254.938 118.532 255.293 118.532C255.673 118.532 255.977 118.57 256.205 118.646C255.698 120.293 255.103 121.825 254.419 123.244C253.735 124.663 253.089 125.967 252.481 127.158C251.873 128.349 251.429 129.223 251.151 129.78C251.86 130.667 252.455 131.376 252.937 131.908C253.443 132.415 254.14 132.947 255.027 133.504C256.192 134.264 257.294 134.644 258.333 134.644C258.865 134.644 259.232 134.745 259.435 134.948C259.156 135.809 258.485 136.24 257.421 136.24C255.647 136.24 253.874 135.543 252.101 134.15C251.442 133.618 251.049 133.301 250.923 133.2C250.821 133.073 250.479 132.731 249.897 132.174C249.694 132.478 249.403 133.01 249.023 133.77C248.668 134.53 248.364 135.138 248.111 135.594C247.857 136.025 247.515 136.367 247.085 136.62C246.654 136.848 246.274 136.962 245.945 136.962C245.641 136.962 245.349 136.924 245.071 136.848C245.476 136.012 246.071 134.872 246.857 133.428C247.667 131.984 248.212 130.996 248.491 130.464C247.224 128.488 246.211 126.651 245.451 124.954C244.716 123.231 244.26 121.293 244.083 119.14ZM262.578 135.822C262.654 137.874 262.907 140.775 263.338 144.524C262.857 145.005 262.287 145.246 261.628 145.246C261.501 145.246 261.362 145.233 261.21 145.208C261.185 144.22 260.995 141.978 260.64 138.482C260.311 134.986 260.146 132.313 260.146 130.464C260.146 128.589 260.26 126.968 260.488 125.6C260.716 124.232 261.109 122.953 261.666 121.762C262.806 119.305 264.909 118.076 267.974 118.076C269.874 118.076 271.432 119.115 272.648 121.192C273.864 123.269 274.472 125.689 274.472 128.45C274.472 130.629 273.763 132.541 272.344 134.188C270.925 135.835 268.962 136.658 266.454 136.658C264.909 136.658 263.617 136.379 262.578 135.822ZM267.67 120.128C265.517 120.128 264.085 121.243 263.376 123.472C262.768 125.372 262.464 127.994 262.464 131.338C262.464 132.554 262.477 133.453 262.502 134.036C264.757 134.517 266.289 134.758 267.1 134.758C268.569 134.758 269.735 134.175 270.596 133.01C271.457 131.819 271.888 130.375 271.888 128.678C271.888 126.17 271.508 124.118 270.748 122.522C270.013 120.926 268.987 120.128 267.67 120.128ZM280.579 129.286C280.528 129.793 280.503 130.135 280.503 130.312C280.503 131.832 280.959 133.01 281.871 133.846C282.808 134.682 283.91 135.1 285.177 135.1C286.443 135.1 287.469 134.923 288.255 134.568C289.065 134.213 289.648 133.833 290.003 133.428C290.915 132.288 291.751 131.718 292.511 131.718C292.789 131.718 293.119 131.794 293.499 131.946C293.245 133.187 292.283 134.327 290.611 135.366C288.964 136.379 286.887 136.886 284.379 136.886C282.605 136.886 281.073 136.329 279.781 135.214C278.514 134.074 277.881 132.529 277.881 130.578C277.881 128.627 278.261 126.74 279.021 124.916C279.806 123.067 280.921 121.496 282.365 120.204C283.834 118.887 285.316 118.228 286.811 118.228C288.331 118.228 289.547 118.545 290.459 119.178C291.396 119.786 291.865 120.685 291.865 121.876C291.865 124.08 290.877 125.904 288.901 127.348C286.95 128.767 284.873 129.476 282.669 129.476C282.086 129.476 281.389 129.413 280.579 129.286ZM283.467 128.032C284.657 128.032 285.721 127.652 286.659 126.892C287.596 126.132 288.255 125.334 288.635 124.498C289.04 123.662 289.243 122.902 289.243 122.218C289.243 121.534 288.977 120.939 288.445 120.432C287.913 119.9 287.292 119.634 286.583 119.634C285.316 119.634 284.138 120.508 283.049 122.256C281.985 124.004 281.225 125.815 280.769 127.69C281.883 127.918 282.783 128.032 283.467 128.032ZM300.706 133.276L300.82 135.442C300.82 135.999 300.655 136.392 300.326 136.62C300.022 136.823 299.705 136.924 299.376 136.924C299.072 136.924 298.755 136.873 298.426 136.772C297.868 133.833 297.438 130.173 297.134 125.79C296.855 121.407 296.69 118.925 296.64 118.342C297.02 117.987 297.412 117.81 297.818 117.81C298.248 117.81 298.628 117.861 298.958 117.962C299.059 118.697 299.135 120.318 299.186 122.826C299.236 125.334 299.3 126.905 299.376 127.538C299.73 125.41 300.364 123.421 301.276 121.572C301.782 120.533 302.441 119.71 303.252 119.102C304.088 118.469 304.974 118.152 305.912 118.152C306.874 118.152 307.748 118.583 308.534 119.444C309.344 120.28 309.75 121.04 309.75 121.724C309.75 121.977 309.598 122.18 309.294 122.332C308.99 122.459 308.648 122.522 308.268 122.522C307.913 122.522 307.634 122.383 307.432 122.104C307.229 121.825 307.09 121.521 307.014 121.192C306.938 120.837 306.773 120.521 306.52 120.242C306.266 119.963 305.924 119.824 305.494 119.824C304.354 119.824 303.378 120.85 302.568 122.902C301.326 125.967 300.706 129.425 300.706 133.276ZM315.2 109.032C315.175 109.615 315.162 110.261 315.162 110.97C315.162 111.679 315.2 112.414 315.276 113.174C314.921 113.579 314.44 113.782 313.832 113.782C313.072 113.782 312.692 113.174 312.692 111.958C312.692 111.907 312.692 111.717 312.692 111.388C312.692 111.059 312.692 110.767 312.692 110.514C312.717 110.235 312.768 109.919 312.844 109.564C313.021 108.956 313.414 108.652 314.022 108.652C314.63 108.652 315.023 108.779 315.2 109.032ZM312.768 127.652C312.768 122.687 313.021 119.824 313.528 119.064C313.705 118.785 313.921 118.646 314.174 118.646C314.427 118.646 314.845 118.785 315.428 119.064C315.301 121.217 315.238 123.561 315.238 126.094C315.238 126.094 315.263 128.893 315.314 134.492C315.314 135.277 315.137 135.835 314.782 136.164C314.453 136.468 314.136 136.62 313.832 136.62C313.553 136.62 313.262 136.544 312.958 136.392C312.831 133.099 312.768 130.185 312.768 127.652ZM322.428 129.286C322.377 129.793 322.352 130.135 322.352 130.312C322.352 131.832 322.808 133.01 323.72 133.846C324.657 134.682 325.759 135.1 327.026 135.1C328.292 135.1 329.318 134.923 330.104 134.568C330.914 134.213 331.497 133.833 331.852 133.428C332.764 132.288 333.6 131.718 334.36 131.718C334.638 131.718 334.968 131.794 335.348 131.946C335.094 133.187 334.132 134.327 332.46 135.366C330.813 136.379 328.736 136.886 326.228 136.886C324.454 136.886 322.922 136.329 321.63 135.214C320.363 134.074 319.73 132.529 319.73 130.578C319.73 128.627 320.11 126.74 320.87 124.916C321.655 123.067 322.77 121.496 324.214 120.204C325.683 118.887 327.165 118.228 328.66 118.228C330.18 118.228 331.396 118.545 332.308 119.178C333.245 119.786 333.714 120.685 333.714 121.876C333.714 124.08 332.726 125.904 330.75 127.348C328.799 128.767 326.722 129.476 324.518 129.476C323.935 129.476 323.238 129.413 322.428 129.286ZM325.316 128.032C326.506 128.032 327.57 127.652 328.508 126.892C329.445 126.132 330.104 125.334 330.484 124.498C330.889 123.662 331.092 122.902 331.092 122.218C331.092 121.534 330.826 120.939 330.294 120.432C329.762 119.9 329.141 119.634 328.432 119.634C327.165 119.634 325.987 120.508 324.898 122.256C323.834 124.004 323.074 125.815 322.618 127.69C323.732 127.918 324.632 128.032 325.316 128.032ZM354.449 135.936C353.993 136.417 353.473 136.658 352.891 136.658C351.801 136.658 350.991 136.075 350.459 134.91C349.927 133.745 349.61 132.326 349.509 130.654C349.433 128.982 349.382 127.31 349.357 125.638C349.331 123.966 349.192 122.547 348.939 121.382C348.711 120.217 348.267 119.634 347.609 119.634C346.722 119.634 345.962 120.432 345.329 122.028C344.721 123.624 344.29 125.397 344.037 127.348C343.327 132.795 342.643 135.847 341.985 136.506C341.529 136.734 341.136 136.848 340.807 136.848C340.477 136.848 340.199 136.81 339.971 136.734C339.439 134.403 339.097 130.388 338.945 124.688C338.894 121.851 338.843 120.014 338.793 119.178C339.325 118.823 339.781 118.646 340.161 118.646C340.541 118.646 340.845 118.684 341.073 118.76C341.199 119.849 341.263 122.079 341.263 125.448C341.288 128.817 341.313 130.755 341.339 131.262C341.465 130.73 341.617 129.869 341.795 128.678C341.997 127.487 342.175 126.512 342.327 125.752C342.479 124.967 342.719 124.055 343.049 123.016C343.378 121.977 343.745 121.154 344.151 120.546C344.556 119.913 345.113 119.381 345.823 118.95C346.532 118.494 347.33 118.266 348.217 118.266C349.407 118.266 350.269 118.811 350.801 119.9C351.358 120.964 351.662 122.294 351.713 123.89C351.763 125.486 351.789 127.107 351.789 128.754C351.814 130.401 352.017 131.908 352.397 133.276C352.802 134.644 353.486 135.531 354.449 135.936ZM370.051 122.75C369.569 123.231 369.088 123.472 368.607 123.472C368.125 123.472 367.733 123.269 367.429 122.864C367.15 122.433 366.922 121.977 366.745 121.496C366.567 120.989 366.238 120.533 365.757 120.128C365.301 119.697 364.718 119.482 364.009 119.482C363.021 119.583 362.121 120.293 361.311 121.61C360.5 122.902 359.905 124.333 359.525 125.904C359.145 127.475 358.955 128.957 358.955 130.35C358.955 131.718 359.335 132.909 360.095 133.922C360.88 134.91 361.931 135.404 363.249 135.404C364.769 135.404 365.985 134.872 366.897 133.808C367.277 133.352 367.631 132.896 367.961 132.44C368.771 131.376 369.506 130.844 370.165 130.844C370.393 130.844 370.722 130.907 371.153 131.034C371.153 131.971 370.291 133.213 368.569 134.758C366.871 136.278 365.022 137.038 363.021 137.038C361.019 137.038 359.436 136.405 358.271 135.138C357.131 133.846 356.561 132.187 356.561 130.16C356.561 127.551 357.194 124.941 358.461 122.332C359.094 121.065 359.955 120.027 361.045 119.216C362.134 118.38 363.35 117.962 364.693 117.962C366.035 117.962 367.112 118.418 367.923 119.33C368.759 120.217 369.468 121.357 370.051 122.75ZM376.56 129.286C376.509 129.793 376.484 130.135 376.484 130.312C376.484 131.832 376.94 133.01 377.852 133.846C378.789 134.682 379.891 135.1 381.158 135.1C382.424 135.1 383.45 134.923 384.236 134.568C385.046 134.213 385.629 133.833 385.984 133.428C386.896 132.288 387.732 131.718 388.492 131.718C388.77 131.718 389.1 131.794 389.48 131.946C389.226 133.187 388.264 134.327 386.592 135.366C384.945 136.379 382.868 136.886 380.36 136.886C378.586 136.886 377.054 136.329 375.762 135.214C374.495 134.074 373.862 132.529 373.862 130.578C373.862 128.627 374.242 126.74 375.002 124.916C375.787 123.067 376.902 121.496 378.346 120.204C379.815 118.887 381.297 118.228 382.792 118.228C384.312 118.228 385.528 118.545 386.44 119.178C387.377 119.786 387.846 120.685 387.846 121.876C387.846 124.08 386.858 125.904 384.882 127.348C382.931 128.767 380.854 129.476 378.65 129.476C378.067 129.476 377.37 129.413 376.56 129.286ZM379.448 128.032C380.638 128.032 381.702 127.652 382.64 126.892C383.577 126.132 384.236 125.334 384.616 124.498C385.021 123.662 385.224 122.902 385.224 122.218C385.224 121.534 384.958 120.939 384.426 120.432C383.894 119.9 383.273 119.634 382.564 119.634C381.297 119.634 380.119 120.508 379.03 122.256C377.966 124.004 377.206 125.815 376.75 127.69C377.864 127.918 378.764 128.032 379.448 128.032ZM144.383 176.41C142.964 176.41 142.255 176.169 142.255 175.688C142.255 175.131 143.129 174.7 144.877 174.396C146.625 174.067 148.398 173.902 150.197 173.902C151.995 173.902 153.3 173.953 154.111 174.054C154.921 174.155 155.441 174.295 155.669 174.472C155.922 174.649 156.049 174.903 156.049 175.232C156.049 179.792 154.959 183.149 152.781 185.302C150.602 187.455 147.461 188.532 143.357 188.532C139.278 188.532 136.073 187.531 133.743 185.53C131.437 183.529 130.285 180.767 130.285 177.246C130.285 172.382 131.741 168.443 134.655 165.428C137.568 162.388 141.191 160.868 145.523 160.868C147.423 160.868 149.221 161.261 150.919 162.046C152.616 162.831 153.655 163.845 154.035 165.086C153.68 165.39 153.338 165.542 153.009 165.542C152.679 165.542 152.274 165.466 151.793 165.314C151.337 165.162 150.868 164.871 150.387 164.44C149.905 164.009 149.171 163.579 148.183 163.148C147.195 162.692 146.156 162.464 145.067 162.464C141.697 162.464 138.771 163.908 136.289 166.796C133.831 169.659 132.603 173.041 132.603 176.942C132.603 180.033 133.73 182.452 135.985 184.2C138.265 185.948 140.925 186.822 143.965 186.822C147.435 186.822 149.893 185.745 151.337 183.592C152.705 181.616 153.389 179.095 153.389 176.03C153.186 175.853 152.92 175.764 152.591 175.764C152.261 175.764 151.869 175.777 151.413 175.802C150.247 175.853 148.905 175.967 147.385 176.144C145.865 176.321 144.864 176.41 144.383 176.41ZM162.689 160.032C162.663 160.615 162.651 161.261 162.651 161.97C162.651 162.679 162.689 163.414 162.765 164.174C162.41 164.579 161.929 164.782 161.321 164.782C160.561 164.782 160.181 164.174 160.181 162.958C160.181 162.907 160.181 162.717 160.181 162.388C160.181 162.059 160.181 161.767 160.181 161.514C160.206 161.235 160.257 160.919 160.333 160.564C160.51 159.956 160.903 159.652 161.511 159.652C162.119 159.652 162.511 159.779 162.689 160.032ZM160.257 178.652C160.257 173.687 160.51 170.824 161.017 170.064C161.194 169.785 161.409 169.646 161.663 169.646C161.916 169.646 162.334 169.785 162.917 170.064C162.79 172.217 162.727 174.561 162.727 177.094C162.727 177.094 162.752 179.893 162.803 185.492C162.803 186.277 162.625 186.835 162.271 187.164C161.941 187.468 161.625 187.62 161.321 187.62C161.042 187.62 160.751 187.544 160.447 187.392C160.32 184.099 160.257 181.185 160.257 178.652ZM168.016 172.078C166.876 172.078 166.104 171.799 165.698 171.242C165.698 170.837 165.863 170.52 166.192 170.292C166.547 170.064 166.927 169.925 167.332 169.874C167.738 169.798 168.396 169.735 169.308 169.684C169.384 169 169.422 168.126 169.422 167.062C169.448 165.973 169.473 165.048 169.498 164.288C169.574 162.287 169.878 161.058 170.41 160.602C170.638 160.399 170.879 160.298 171.132 160.298C171.411 160.298 171.652 160.323 171.854 160.374C171.93 162.198 171.968 163.3 171.968 163.68L171.74 169.38C171.791 169.405 171.93 169.418 172.158 169.418L174.894 169.304C176.87 169.304 177.858 169.608 177.858 170.216C177.858 171.077 177.504 171.584 176.794 171.736C176.465 171.812 176.072 171.85 175.616 171.85C175.186 171.85 174.616 171.799 173.906 171.698C173.222 171.571 172.728 171.508 172.424 171.508C172.12 171.508 171.918 171.521 171.816 171.546C171.74 172.281 171.702 173.015 171.702 173.75C171.702 174.459 171.715 175.359 171.74 176.448C171.791 177.512 171.892 178.791 172.044 180.286C172.222 181.781 172.589 183.073 173.146 184.162C173.704 185.226 174.413 185.758 175.274 185.758C175.705 185.758 176.212 185.593 176.794 185.264C177.377 184.909 177.82 184.732 178.124 184.732C178.454 184.732 178.732 184.808 178.96 184.96C179.214 185.087 179.34 185.239 179.34 185.416C179.34 185.948 178.796 186.467 177.706 186.974C176.642 187.455 175.73 187.696 174.97 187.696C172.184 187.696 170.448 185.061 169.764 179.792C169.562 178.272 169.41 175.663 169.308 171.964C168.903 172.04 168.472 172.078 168.016 172.078ZM201.152 183.592C200.746 184.757 199.961 185.745 198.796 186.556C197.656 187.367 196.402 187.772 195.034 187.772C193.691 187.772 192.64 187.101 191.88 185.758C191.145 184.39 190.778 182.503 190.778 180.096C190.778 173.307 191.778 169.912 193.78 169.912C194.033 169.912 194.35 169.95 194.73 170.026C194.654 170.431 194.476 171.204 194.198 172.344C193.64 174.573 193.362 176.537 193.362 178.234C193.362 179.931 193.602 181.73 194.084 183.63C194.565 185.505 195.249 186.442 196.136 186.442C196.592 186.442 197.035 186.151 197.466 185.568C197.896 184.985 198.238 184.377 198.492 183.744C198.745 183.085 199.011 182.338 199.29 181.502C199.568 180.666 199.746 180.159 199.822 179.982C199.442 178.513 199.252 177.018 199.252 175.498C199.252 175.422 199.252 175.194 199.252 174.814C199.252 174.409 199.264 174.016 199.29 173.636C199.315 173.256 199.391 172.8 199.518 172.268C199.771 171.204 200.455 170.672 201.57 170.672C202.507 170.672 202.976 172.091 202.976 174.928C202.976 175.435 202.9 176.169 202.748 177.132C202.621 178.095 202.558 178.766 202.558 179.146C202.558 180.311 203.115 181.819 204.23 183.668C205.344 185.517 206.383 186.442 207.346 186.442C208.334 186.442 209.056 185.885 209.512 184.77C209.968 183.655 210.196 182.414 210.196 181.046C210.196 179.475 210.056 178.285 209.778 177.474C209.524 176.638 209.36 176.093 209.284 175.84C209.233 175.587 209.068 175.194 208.79 174.662C208.536 174.105 208.372 173.75 208.296 173.598C208.245 173.446 208.055 173.079 207.726 172.496C207.396 171.913 207.206 171.584 207.156 171.508C206.421 170.216 205.99 169.507 205.864 169.38C206.497 168.848 207.08 168.582 207.612 168.582C209.157 169.697 210.386 171.521 211.298 174.054C212.21 176.562 212.666 178.855 212.666 180.932C212.666 182.984 212.222 184.605 211.336 185.796C210.474 186.961 209.119 187.544 207.27 187.544C205.978 187.544 204.749 187.189 203.584 186.48C202.444 185.745 201.633 184.783 201.152 183.592ZM219.539 160.032C219.513 160.615 219.501 161.261 219.501 161.97C219.501 162.679 219.539 163.414 219.615 164.174C219.26 164.579 218.779 164.782 218.171 164.782C217.411 164.782 217.031 164.174 217.031 162.958C217.031 162.907 217.031 162.717 217.031 162.388C217.031 162.059 217.031 161.767 217.031 161.514C217.056 161.235 217.107 160.919 217.183 160.564C217.36 159.956 217.753 159.652 218.361 159.652C218.969 159.652 219.361 159.779 219.539 160.032ZM217.107 178.652C217.107 173.687 217.36 170.824 217.867 170.064C218.044 169.785 218.259 169.646 218.513 169.646C218.766 169.646 219.184 169.785 219.767 170.064C219.64 172.217 219.577 174.561 219.577 177.094C219.577 177.094 219.602 179.893 219.653 185.492C219.653 186.277 219.475 186.835 219.121 187.164C218.791 187.468 218.475 187.62 218.171 187.62C217.892 187.62 217.601 187.544 217.297 187.392C217.17 184.099 217.107 181.185 217.107 178.652ZM224.866 172.078C223.726 172.078 222.954 171.799 222.548 171.242C222.548 170.837 222.713 170.52 223.042 170.292C223.397 170.064 223.777 169.925 224.182 169.874C224.588 169.798 225.246 169.735 226.158 169.684C226.234 169 226.272 168.126 226.272 167.062C226.298 165.973 226.323 165.048 226.348 164.288C226.424 162.287 226.728 161.058 227.26 160.602C227.488 160.399 227.729 160.298 227.982 160.298C228.261 160.298 228.502 160.323 228.704 160.374C228.78 162.198 228.818 163.3 228.818 163.68L228.59 169.38C228.641 169.405 228.78 169.418 229.008 169.418L231.744 169.304C233.72 169.304 234.708 169.608 234.708 170.216C234.708 171.077 234.354 171.584 233.644 171.736C233.315 171.812 232.922 171.85 232.466 171.85C232.036 171.85 231.466 171.799 230.756 171.698C230.072 171.571 229.578 171.508 229.274 171.508C228.97 171.508 228.768 171.521 228.666 171.546C228.59 172.281 228.552 173.015 228.552 173.75C228.552 174.459 228.565 175.359 228.59 176.448C228.641 177.512 228.742 178.791 228.894 180.286C229.072 181.781 229.439 183.073 229.996 184.162C230.554 185.226 231.263 185.758 232.124 185.758C232.555 185.758 233.062 185.593 233.644 185.264C234.227 184.909 234.67 184.732 234.974 184.732C235.304 184.732 235.582 184.808 235.81 184.96C236.064 185.087 236.19 185.239 236.19 185.416C236.19 185.948 235.646 186.467 234.556 186.974C233.492 187.455 232.58 187.696 231.82 187.696C229.034 187.696 227.298 185.061 226.614 179.792C226.412 178.272 226.26 175.663 226.158 171.964C225.753 172.04 225.322 172.078 224.866 172.078ZM239.055 180.134L239.397 163.11C239.397 161.793 239.321 160.893 239.169 160.412C239.625 160.007 240.322 159.804 241.259 159.804C241.639 162.515 241.829 165.998 241.829 170.254C241.829 171.521 241.715 174.459 241.487 179.07C242.678 172.661 244.806 169.456 247.871 169.456C248.961 169.456 249.797 170.039 250.379 171.204C250.987 172.344 251.367 173.737 251.519 175.384C251.671 177.031 251.798 178.677 251.899 180.324C252.153 184.276 252.862 186.252 254.027 186.252C254.053 186.252 254.293 186.176 254.749 186.024C255.763 185.72 256.333 185.644 256.459 185.796C256.459 186.075 256.067 186.429 255.281 186.86C254.496 187.265 253.774 187.468 253.115 187.468C252.001 187.468 251.139 186.898 250.531 185.758C249.949 184.593 249.581 183.187 249.429 181.54C249.303 179.893 249.201 178.259 249.125 176.638C249.075 174.991 248.91 173.598 248.631 172.458C248.353 171.293 247.884 170.71 247.225 170.71C246.415 170.71 245.667 171.597 244.983 173.37C244.325 175.118 243.805 177.056 243.425 179.184C243.045 181.312 242.577 183.263 242.019 185.036C241.487 186.784 240.943 187.658 240.385 187.658C239.499 187.658 239.055 185.15 239.055 180.134ZM259.054 172.23C260.346 170.254 262.208 169.266 264.64 169.266C267.072 169.266 269.01 170.254 270.454 172.23C271.923 174.206 272.658 176.461 272.658 178.994C272.658 181.502 271.86 183.63 270.264 185.378C268.668 187.126 266.641 188 264.184 188C261.727 188 259.941 187.316 258.826 185.948C257.711 184.555 257.154 182.604 257.154 180.096C257.154 176.828 257.787 174.206 259.054 172.23ZM260.726 174.244C260.397 175.232 260.143 176.22 259.966 177.208C259.814 178.196 259.738 179.121 259.738 179.982C259.738 180.818 259.801 181.591 259.928 182.3C260.055 182.984 260.27 183.668 260.574 184.352C260.878 185.011 261.334 185.543 261.942 185.948C262.55 186.328 263.272 186.518 264.108 186.518C265.805 186.518 267.224 185.821 268.364 184.428C269.529 183.035 270.112 181.35 270.112 179.374C270.112 177.398 269.58 175.485 268.516 173.636C267.477 171.761 266.198 170.824 264.678 170.824C263.766 170.824 262.968 171.141 262.284 171.774C261.6 172.407 261.081 173.231 260.726 174.244ZM279.887 170.178C279.228 171.419 278.899 173.269 278.899 175.726C278.899 179.425 279.596 182.376 280.989 184.58C281.8 185.872 282.762 186.518 283.877 186.518C285.017 186.518 285.929 185.923 286.613 184.732C287.424 183.263 287.829 181.236 287.829 178.652C287.829 175.409 287.373 173.015 286.461 171.47C286.056 170.735 285.815 170.203 285.739 169.874C285.688 169.545 285.777 169.304 286.005 169.152C286.233 169 286.613 168.924 287.145 168.924C288.69 168.924 289.704 170.52 290.185 173.712C290.337 174.599 290.413 175.485 290.413 176.372C290.413 178.677 289.957 180.983 289.045 183.288C287.753 186.455 285.714 188.038 282.927 188.038C281.458 188.038 280.204 187.493 279.165 186.404C277.214 184.327 276.239 181.198 276.239 177.018C276.239 175.194 276.366 173.801 276.619 172.838C276.872 171.875 277.088 171.255 277.265 170.976C277.442 170.672 277.658 170.393 277.911 170.14C278.164 169.887 278.443 169.785 278.747 169.836C279.076 169.887 279.456 170.001 279.887 170.178ZM294.593 172.078C293.453 172.078 292.681 171.799 292.275 171.242C292.275 170.837 292.44 170.52 292.769 170.292C293.124 170.064 293.504 169.925 293.909 169.874C294.315 169.798 294.973 169.735 295.885 169.684C295.961 169 295.999 168.126 295.999 167.062C296.025 165.973 296.05 165.048 296.075 164.288C296.151 162.287 296.455 161.058 296.987 160.602C297.215 160.399 297.456 160.298 297.709 160.298C297.988 160.298 298.229 160.323 298.431 160.374C298.507 162.198 298.545 163.3 298.545 163.68L298.317 169.38C298.368 169.405 298.507 169.418 298.735 169.418L301.471 169.304C303.447 169.304 304.435 169.608 304.435 170.216C304.435 171.077 304.081 171.584 303.371 171.736C303.042 171.812 302.649 171.85 302.193 171.85C301.763 171.85 301.193 171.799 300.483 171.698C299.799 171.571 299.305 171.508 299.001 171.508C298.697 171.508 298.495 171.521 298.393 171.546C298.317 172.281 298.279 173.015 298.279 173.75C298.279 174.459 298.292 175.359 298.317 176.448C298.368 177.512 298.469 178.791 298.621 180.286C298.799 181.781 299.166 183.073 299.723 184.162C300.281 185.226 300.99 185.758 301.851 185.758C302.282 185.758 302.789 185.593 303.371 185.264C303.954 184.909 304.397 184.732 304.701 184.732C305.031 184.732 305.309 184.808 305.537 184.96C305.791 185.087 305.917 185.239 305.917 185.416C305.917 185.948 305.373 186.467 304.283 186.974C303.219 187.455 302.307 187.696 301.547 187.696C298.761 187.696 297.025 185.061 296.341 179.792C296.139 178.272 295.987 175.663 295.885 171.964C295.48 172.04 295.049 172.078 294.593 172.078ZM317.545 172.078C316.405 172.078 315.632 171.799 315.227 171.242C315.227 170.837 315.391 170.52 315.721 170.292C316.075 170.064 316.455 169.925 316.861 169.874C317.266 169.798 317.925 169.735 318.837 169.684C318.913 169 318.951 168.126 318.951 167.062C318.976 165.973 319.001 165.048 319.027 164.288C319.103 162.287 319.407 161.058 319.939 160.602C320.167 160.399 320.407 160.298 320.661 160.298C320.939 160.298 321.18 160.323 321.383 160.374C321.459 162.198 321.497 163.3 321.497 163.68L321.269 169.38C321.319 169.405 321.459 169.418 321.687 169.418L324.423 169.304C326.399 169.304 327.387 169.608 327.387 170.216C327.387 171.077 327.032 171.584 326.323 171.736C325.993 171.812 325.601 171.85 325.145 171.85C324.714 171.85 324.144 171.799 323.435 171.698C322.751 171.571 322.257 171.508 321.953 171.508C321.649 171.508 321.446 171.521 321.345 171.546C321.269 172.281 321.231 173.015 321.231 173.75C321.231 174.459 321.243 175.359 321.269 176.448C321.319 177.512 321.421 178.791 321.573 180.286C321.75 181.781 322.117 183.073 322.675 184.162C323.232 185.226 323.941 185.758 324.803 185.758C325.233 185.758 325.74 185.593 326.323 185.264C326.905 184.909 327.349 184.732 327.653 184.732C327.982 184.732 328.261 184.808 328.489 184.96C328.742 185.087 328.869 185.239 328.869 185.416C328.869 185.948 328.324 186.467 327.235 186.974C326.171 187.455 325.259 187.696 324.499 187.696C321.712 187.696 319.977 185.061 319.293 179.792C319.09 178.272 318.938 175.663 318.837 171.964C318.431 172.04 318.001 172.078 317.545 172.078ZM331.734 180.134L332.076 163.11C332.076 161.793 332 160.893 331.848 160.412C332.304 160.007 333 159.804 333.938 159.804C334.318 162.515 334.508 165.998 334.508 170.254C334.508 171.521 334.394 174.459 334.166 179.07C335.356 172.661 337.484 169.456 340.55 169.456C341.639 169.456 342.475 170.039 343.058 171.204C343.666 172.344 344.046 173.737 344.198 175.384C344.35 177.031 344.476 178.677 344.578 180.324C344.831 184.276 345.54 186.252 346.706 186.252C346.731 186.252 346.972 186.176 347.428 186.024C348.441 185.72 349.011 185.644 349.138 185.796C349.138 186.075 348.745 186.429 347.96 186.86C347.174 187.265 346.452 187.468 345.794 187.468C344.679 187.468 343.818 186.898 343.21 185.758C342.627 184.593 342.26 183.187 342.108 181.54C341.981 179.893 341.88 178.259 341.804 176.638C341.753 174.991 341.588 173.598 341.31 172.458C341.031 171.293 340.562 170.71 339.904 170.71C339.093 170.71 338.346 171.597 337.662 173.37C337.003 175.118 336.484 177.056 336.104 179.184C335.724 181.312 335.255 183.263 334.698 185.036C334.166 186.784 333.621 187.658 333.064 187.658C332.177 187.658 331.734 185.15 331.734 180.134ZM352.379 180.286C352.328 180.793 352.303 181.135 352.303 181.312C352.303 182.832 352.759 184.01 353.671 184.846C354.608 185.682 355.71 186.1 356.977 186.1C358.243 186.1 359.269 185.923 360.055 185.568C360.865 185.213 361.448 184.833 361.803 184.428C362.715 183.288 363.551 182.718 364.311 182.718C364.589 182.718 364.919 182.794 365.299 182.946C365.045 184.187 364.083 185.327 362.411 186.366C360.764 187.379 358.687 187.886 356.179 187.886C354.405 187.886 352.873 187.329 351.581 186.214C350.314 185.074 349.681 183.529 349.681 181.578C349.681 179.627 350.061 177.74 350.821 175.916C351.606 174.067 352.721 172.496 354.165 171.204C355.634 169.887 357.116 169.228 358.611 169.228C360.131 169.228 361.347 169.545 362.259 170.178C363.196 170.786 363.665 171.685 363.665 172.876C363.665 175.08 362.677 176.904 360.701 178.348C358.75 179.767 356.673 180.476 354.469 180.476C353.886 180.476 353.189 180.413 352.379 180.286ZM355.267 179.032C356.457 179.032 357.521 178.652 358.459 177.892C359.396 177.132 360.055 176.334 360.435 175.498C360.84 174.662 361.043 173.902 361.043 173.218C361.043 172.534 360.777 171.939 360.245 171.432C359.713 170.9 359.092 170.634 358.383 170.634C357.116 170.634 355.938 171.508 354.849 173.256C353.785 175.004 353.025 176.815 352.569 178.69C353.683 178.918 354.583 179.032 355.267 179.032ZM187.159 223.8C186.931 223.217 186.501 222.761 185.867 222.432C185.234 222.103 184.449 221.938 183.511 221.938C182.574 221.938 181.687 222.217 180.851 222.774C180.041 223.331 179.635 224.079 179.635 225.016C179.635 225.953 180.015 226.701 180.775 227.258C181.561 227.79 182.498 228.195 183.587 228.474C184.702 228.753 185.817 229.057 186.931 229.386C188.046 229.69 188.983 230.209 189.743 230.944C190.529 231.653 190.921 232.591 190.921 233.756C190.921 235.453 190.212 236.745 188.793 237.632C187.4 238.519 185.715 238.962 183.739 238.962C182.574 238.962 181.041 238.645 179.141 238.012C177.267 237.379 176.329 236.619 176.329 235.732C176.329 235.073 176.887 234.744 178.001 234.744C178.331 234.744 178.761 234.947 179.293 235.352C180.915 236.543 182.574 237.138 184.271 237.138C185.183 237.138 185.969 236.986 186.627 236.682C187.843 236.099 188.451 235.162 188.451 233.87C188.451 233.085 188.059 232.451 187.273 231.97C186.513 231.489 185.576 231.109 184.461 230.83C183.372 230.551 182.27 230.247 181.155 229.918C180.041 229.589 179.091 229.044 178.305 228.284C177.545 227.499 177.165 226.511 177.165 225.32C177.165 223.775 177.862 222.521 179.255 221.558C180.649 220.595 182.371 220.114 184.423 220.114C185.817 220.114 187.071 220.481 188.185 221.216C189.325 221.925 189.895 222.964 189.895 224.332C189.895 225.244 189.376 225.7 188.337 225.7C187.907 225.7 187.615 225.624 187.463 225.472C187.337 225.32 187.261 225.054 187.235 224.674C187.235 224.269 187.21 223.977 187.159 223.8ZM194.59 223.078C193.45 223.078 192.678 222.799 192.272 222.242C192.272 221.837 192.437 221.52 192.766 221.292C193.121 221.064 193.501 220.925 193.906 220.874C194.312 220.798 194.97 220.735 195.882 220.684C195.958 220 195.996 219.126 195.996 218.062C196.022 216.973 196.047 216.048 196.072 215.288C196.148 213.287 196.452 212.058 196.984 211.602C197.212 211.399 197.453 211.298 197.706 211.298C197.985 211.298 198.226 211.323 198.428 211.374C198.504 213.198 198.542 214.3 198.542 214.68L198.314 220.38C198.365 220.405 198.504 220.418 198.732 220.418L201.468 220.304C203.444 220.304 204.432 220.608 204.432 221.216C204.432 222.077 204.078 222.584 203.368 222.736C203.039 222.812 202.646 222.85 202.19 222.85C201.76 222.85 201.19 222.799 200.48 222.698C199.796 222.571 199.302 222.508 198.998 222.508C198.694 222.508 198.492 222.521 198.39 222.546C198.314 223.281 198.276 224.015 198.276 224.75C198.276 225.459 198.289 226.359 198.314 227.448C198.365 228.512 198.466 229.791 198.618 231.286C198.796 232.781 199.163 234.073 199.72 235.162C200.278 236.226 200.987 236.758 201.848 236.758C202.279 236.758 202.786 236.593 203.368 236.264C203.951 235.909 204.394 235.732 204.698 235.732C205.028 235.732 205.306 235.808 205.534 235.96C205.788 236.087 205.914 236.239 205.914 236.416C205.914 236.948 205.37 237.467 204.28 237.974C203.216 238.455 202.304 238.696 201.544 238.696C198.758 238.696 197.022 236.061 196.338 230.792C196.136 229.272 195.984 226.663 195.882 222.964C195.477 223.04 195.046 223.078 194.59 223.078ZM212.275 235.276L212.389 237.442C212.389 237.999 212.225 238.392 211.895 238.62C211.591 238.823 211.275 238.924 210.945 238.924C210.641 238.924 210.325 238.873 209.995 238.772C209.438 235.833 209.007 232.173 208.703 227.79C208.425 223.407 208.26 220.925 208.209 220.342C208.589 219.987 208.982 219.81 209.387 219.81C209.818 219.81 210.198 219.861 210.527 219.962C210.629 220.697 210.705 222.318 210.755 224.826C210.806 227.334 210.869 228.905 210.945 229.538C211.3 227.41 211.933 225.421 212.845 223.572C213.352 222.533 214.011 221.71 214.821 221.102C215.657 220.469 216.544 220.152 217.481 220.152C218.444 220.152 219.318 220.583 220.103 221.444C220.914 222.28 221.319 223.04 221.319 223.724C221.319 223.977 221.167 224.18 220.863 224.332C220.559 224.459 220.217 224.522 219.837 224.522C219.483 224.522 219.204 224.383 219.001 224.104C218.799 223.825 218.659 223.521 218.583 223.192C218.507 222.837 218.343 222.521 218.089 222.242C217.836 221.963 217.494 221.824 217.063 221.824C215.923 221.824 214.948 222.85 214.137 224.902C212.896 227.967 212.275 231.425 212.275 235.276ZM227.188 221.178C226.529 222.419 226.2 224.269 226.2 226.726C226.2 230.425 226.897 233.376 228.29 235.58C229.101 236.872 230.063 237.518 231.178 237.518C232.318 237.518 233.23 236.923 233.914 235.732C234.725 234.263 235.13 232.236 235.13 229.652C235.13 226.409 234.674 224.015 233.762 222.47C233.357 221.735 233.116 221.203 233.04 220.874C232.989 220.545 233.078 220.304 233.306 220.152C233.534 220 233.914 219.924 234.446 219.924C235.991 219.924 237.005 221.52 237.486 224.712C237.638 225.599 237.714 226.485 237.714 227.372C237.714 229.677 237.258 231.983 236.346 234.288C235.054 237.455 233.015 239.038 230.228 239.038C228.759 239.038 227.505 238.493 226.466 237.404C224.515 235.327 223.54 232.198 223.54 228.018C223.54 226.194 223.667 224.801 223.92 223.838C224.173 222.875 224.389 222.255 224.566 221.976C224.743 221.672 224.959 221.393 225.212 221.14C225.465 220.887 225.744 220.785 226.048 220.836C226.377 220.887 226.757 221.001 227.188 221.178ZM248.506 220C250.812 220 252.408 220.937 253.294 222.812C253.776 223.8 254.168 224.737 254.472 225.624C254.776 226.511 254.979 227.727 255.08 229.272C255.232 231.628 255.308 234.313 255.308 237.328C255.308 240.317 254.586 242.699 253.142 244.472C251.724 246.271 249.634 247.17 246.872 247.17C244.136 247.17 241.856 246.283 240.032 244.51C240.539 244.003 241.084 243.75 241.666 243.75C242.274 243.75 243.098 244.003 244.136 244.51C245.2 245.042 246.328 245.308 247.518 245.308C248.709 245.308 249.697 245.029 250.482 244.472C251.268 243.94 251.85 243.18 252.23 242.192C252.864 240.444 253.18 238.291 253.18 235.732C253.18 235.352 253.142 233.946 253.066 231.514C252.382 233.591 251.407 235.314 250.14 236.682C248.874 238.025 247.442 238.696 245.846 238.696C244.25 238.696 243.072 237.987 242.312 236.568C241.578 235.124 241.21 233.49 241.21 231.666C241.21 229.842 241.464 228.069 241.97 226.346C242.477 224.598 243.3 223.103 244.44 221.862C245.58 220.621 246.936 220 248.506 220ZM244.478 225.776C244.149 226.891 243.908 227.942 243.756 228.93C243.604 229.918 243.528 230.919 243.528 231.932C243.528 232.92 243.731 234.022 244.136 235.238C244.567 236.454 245.188 237.062 245.998 237.062C247.594 237.062 249.013 235.871 250.254 233.49C251.496 231.083 252.116 228.664 252.116 226.232C252.116 225.396 251.724 224.459 250.938 223.42C250.178 222.356 249.216 221.824 248.05 221.824C247.24 221.824 246.518 222.204 245.884 222.964C245.276 223.724 244.808 224.661 244.478 225.776ZM266.587 220C268.893 220 270.489 220.937 271.375 222.812C271.857 223.8 272.249 224.737 272.553 225.624C272.857 226.511 273.06 227.727 273.161 229.272C273.313 231.628 273.389 234.313 273.389 237.328C273.389 240.317 272.667 242.699 271.223 244.472C269.805 246.271 267.715 247.17 264.953 247.17C262.217 247.17 259.937 246.283 258.113 244.51C258.62 244.003 259.165 243.75 259.747 243.75C260.355 243.75 261.179 244.003 262.217 244.51C263.281 245.042 264.409 245.308 265.599 245.308C266.79 245.308 267.778 245.029 268.563 244.472C269.349 243.94 269.931 243.18 270.311 242.192C270.945 240.444 271.261 238.291 271.261 235.732C271.261 235.352 271.223 233.946 271.147 231.514C270.463 233.591 269.488 235.314 268.221 236.682C266.955 238.025 265.523 238.696 263.927 238.696C262.331 238.696 261.153 237.987 260.393 236.568C259.659 235.124 259.291 233.49 259.291 231.666C259.291 229.842 259.545 228.069 260.051 226.346C260.558 224.598 261.381 223.103 262.521 221.862C263.661 220.621 265.017 220 266.587 220ZM262.559 225.776C262.23 226.891 261.989 227.942 261.837 228.93C261.685 229.918 261.609 230.919 261.609 231.932C261.609 232.92 261.812 234.022 262.217 235.238C262.648 236.454 263.269 237.062 264.079 237.062C265.675 237.062 267.094 235.871 268.335 233.49C269.577 231.083 270.197 228.664 270.197 226.232C270.197 225.396 269.805 224.459 269.019 223.42C268.259 222.356 267.297 221.824 266.131 221.824C265.321 221.824 264.599 222.204 263.965 222.964C263.357 223.724 262.889 224.661 262.559 225.776ZM279.273 216.276C279.273 213.768 278.931 212.083 278.247 211.222C278.576 210.741 279.146 210.5 279.957 210.5C280.109 210.5 280.273 210.513 280.451 210.538C281.084 211.171 281.401 213.008 281.401 216.048C281.401 217.695 281.325 219.607 281.173 221.786C280.869 225.586 280.717 228.373 280.717 230.146C280.717 234.934 281.641 237.328 283.491 237.328C283.491 237.328 283.959 237.239 284.897 237.062C285.125 237.062 285.315 237.163 285.467 237.366C285.391 238.278 284.643 238.734 283.225 238.734C281.831 238.734 280.755 238.316 279.995 237.48C279.235 236.619 278.753 235.555 278.551 234.288C278.373 232.996 278.285 231.932 278.285 231.096C278.285 230.26 278.297 229.348 278.323 228.36C278.348 227.347 278.462 225.903 278.665 224.028C279.07 220.228 279.273 217.644 279.273 216.276ZM289.391 231.286C289.341 231.793 289.315 232.135 289.315 232.312C289.315 233.832 289.771 235.01 290.683 235.846C291.621 236.682 292.723 237.1 293.989 237.1C295.256 237.1 296.282 236.923 297.067 236.568C297.878 236.213 298.461 235.833 298.815 235.428C299.727 234.288 300.563 233.718 301.323 233.718C301.602 233.718 301.931 233.794 302.311 233.946C302.058 235.187 301.095 236.327 299.423 237.366C297.777 238.379 295.699 238.886 293.191 238.886C291.418 238.886 289.885 238.329 288.593 237.214C287.327 236.074 286.693 234.529 286.693 232.578C286.693 230.627 287.073 228.74 287.833 226.916C288.619 225.067 289.733 223.496 291.177 222.204C292.647 220.887 294.129 220.228 295.623 220.228C297.143 220.228 298.359 220.545 299.271 221.178C300.209 221.786 300.677 222.685 300.677 223.876C300.677 226.08 299.689 227.904 297.713 229.348C295.763 230.767 293.685 231.476 291.481 231.476C290.899 231.476 290.202 231.413 289.391 231.286ZM292.279 230.032C293.47 230.032 294.534 229.652 295.471 228.892C296.409 228.132 297.067 227.334 297.447 226.498C297.853 225.662 298.055 224.902 298.055 224.218C298.055 223.534 297.789 222.939 297.257 222.432C296.725 221.9 296.105 221.634 295.395 221.634C294.129 221.634 292.951 222.508 291.861 224.256C290.797 226.004 290.037 227.815 289.581 229.69C290.696 229.918 291.595 230.032 292.279 230.032ZM306.152 215.44C305.95 215.592 305.722 215.668 305.468 215.668C305.24 215.668 304.962 215.567 304.632 215.364C304.328 215.161 304.176 214.946 304.176 214.718C304.176 214.465 304.341 214.237 304.67 214.034C306.342 213.046 308.597 212.552 311.434 212.552C314.905 212.552 317.033 213.109 317.818 214.224C318.173 214.705 318.35 215.389 318.35 216.276C318.35 217.137 317.97 218.227 317.21 219.544C316.45 220.836 315.614 222.027 314.702 223.116C313.79 224.18 312.929 225.345 312.118 226.612C311.333 227.879 310.915 228.943 310.864 229.804C310.839 230.159 310.636 230.437 310.256 230.64C309.902 230.843 309.572 230.944 309.268 230.944H308.964C308.534 230.843 308.306 230.577 308.28 230.146C308.356 228.981 308.787 227.727 309.572 226.384C310.358 225.041 311.181 223.876 312.042 222.888C312.929 221.875 313.727 220.76 314.436 219.544C315.171 218.328 315.538 217.302 315.538 216.466C315.538 215.63 315.196 215.06 314.512 214.756C313.828 214.452 312.574 214.3 310.75 214.3C308.952 214.3 307.419 214.68 306.152 215.44ZM310.522 234.972C310.953 235.023 311.333 235.187 311.662 235.466C311.992 235.719 312.156 236.099 312.156 236.606C312.156 237.087 311.852 237.531 311.244 237.936C310.636 238.341 310.003 238.544 309.344 238.544C308.356 238.544 307.862 238.189 307.862 237.48C307.862 236.745 308.116 236.15 308.622 235.694C309.129 235.213 309.762 234.972 310.522 234.972Z"
        fill="#D1CFC0" />
</svg>